<?xml version="1.0" encoding="UTF-8" standalone="no"?>
<svg width="38px" height="24px" viewBox="0 0 38 24" version="1.1" xmlns="http://www.w3.org/2000/svg" xmlns:xlink="http://www.w3.org/1999/xlink">
    <!-- Generator: Sketch 39.1 (31720) - http://www.bohemiancoding.com/sketch -->
    <title>americanexpress</title>
    <desc>Created with Sketch.</desc>
    <defs>
        <radialGradient cx="17.5409177%" cy="17.466056%" fx="17.5409177%" fy="17.466056%" r="93.2873442%" id="radialGradient-1">
            <stop stop-color="#9DD5F6" offset="0%"></stop>
            <stop stop-color="#98D3F5" offset="7.11%"></stop>
            <stop stop-color="#89CEF3" offset="15.75%"></stop>
            <stop stop-color="#70C6EF" offset="25.16%"></stop>
            <stop stop-color="#4EBBEA" offset="35.14%"></stop>
            <stop stop-color="#23ADE3" offset="45.46%"></stop>
            <stop stop-color="#0DA6E0" offset="50%"></stop>
            <stop stop-color="#2E77BC" offset="100%"></stop>
        </radialGradient>
    </defs>
    <g id="Page-1" stroke="none" stroke-width="1" fill="none" fill-rule="evenodd">
        <g id="americanexpress">
            <g id="Group" transform="translate(7.000000, 0.000000)">
                <path d="M23.8264225,0 L8.45070423e-05,0 L8.45070423e-05,23.9971166 L23.8264225,23.9971166 L23.8264225,16.0774558 C23.9210704,15.9401555 23.9678028,15.764523 23.9678028,15.5497951 C23.9678028,15.3040283 23.9210704,15.1518021 23.8264225,15.023576" id="Shape" fill="url(#radialGradient-1)"></path>
                <path d="M2.14774648,10.3839435 L1.68938028,9.26306714 L1.2336338,10.3839435 L2.14774648,10.3839435 Z M12.245493,9.93761131 C12.1534648,9.99366784 12.0446197,9.99553357 11.9142254,9.99553357 L11.1006761,9.99553357 L11.1006761,9.37102473 L11.9252958,9.37102473 C12.042,9.37102473 12.1637746,9.37628269 12.2428732,9.42173852 C12.3297465,9.46269965 12.383493,9.54987986 12.383493,9.67030389 C12.383493,9.79318728 12.3323662,9.89207067 12.245493,9.93761131 L12.245493,9.93761131 Z M18.0492676,10.3839435 L17.585831,9.26306714 L17.1249296,10.3839435 L18.0492676,10.3839435 L18.0492676,10.3839435 Z M7.23067606,11.5971731 L6.54414085,11.5971731 L6.54160563,9.39510954 L5.57053521,11.5971731 L4.98253521,11.5971731 L4.00892958,9.39315901 L4.00892958,11.5971731 L2.64684507,11.5971731 L2.38952113,10.9700353 L0.99515493,10.9700353 L0.735211268,11.5971731 L0.00785915493,11.5971731 L1.20709859,8.7855265 L2.20208451,8.7855265 L3.34107042,11.447576 L3.34107042,8.7855265 L4.43408451,8.7855265 L5.31050704,10.6928905 L6.11560563,8.7855265 L7.23059155,8.7855265 L7.23059155,11.5971731 L7.23067606,11.5971731 Z M9.96692958,11.5971731 L7.72977465,11.5971731 L7.72977465,8.7855265 L9.96692958,8.7855265 L9.96692958,9.37102473 L8.39949296,9.37102473 L8.39949296,9.87782332 L9.92932394,9.87782332 L9.92932394,10.4541625 L8.39949296,10.4541625 L8.39949296,11.0156608 L9.96692958,11.0156608 L9.96692958,11.5971731 L9.96692958,11.5971731 Z M13.1212394,9.54275618 C13.1212394,9.99103887 12.8230986,10.2226431 12.6493521,10.2921837 C12.7958873,10.3481555 12.9210423,10.4470389 12.9806197,10.5289611 C13.0751831,10.6688057 13.091493,10.7937244 13.091493,11.0448339 L13.091493,11.5971731 L12.4160282,11.5971731 L12.413493,11.2426007 C12.413493,11.0734134 12.4296338,10.830106 12.3077746,10.694841 C12.2099155,10.5959576 12.0607606,10.5745018 11.819662,10.5745018 L11.1007606,10.5745018 L11.1007606,11.5971731 L10.4311268,11.5971731 L10.4311268,8.7855265 L11.9714366,8.7855265 C12.3136901,8.7855265 12.5658592,8.79460071 12.7823662,8.92019788 C12.9942254,9.04579505 13.1212394,9.22914488 13.1212394,9.54275618 L13.1212394,9.54275618 Z M14.1929577,11.5971731 L13.5096338,11.5971731 L13.5096338,8.7855265 L14.1929577,8.7855265 L14.1929577,11.5971731 L14.1929577,11.5971731 Z M22.1203944,11.5971731 L21.1713803,11.5971731 L19.902,9.48686926 L19.902,11.5971731 L18.5381408,11.5971731 L18.2775211,10.9700353 L16.8863662,10.9700353 L16.6335211,11.5971731 L15.8498873,11.5971731 C15.5243662,11.5971731 15.1122254,11.5249187 14.8788169,11.2861908 C14.6434648,11.0474629 14.5210141,10.7240989 14.5210141,10.2128057 C14.5210141,9.79581625 14.5941972,9.41461484 14.8820282,9.11338516 C15.0985352,8.8889894 15.4375775,8.7855265 15.8990704,8.7855265 L16.5474085,8.7855265 L16.5474085,9.38798587 L15.9126761,9.38798587 C15.6682817,9.38798587 15.5302817,9.4244523 15.3973521,9.55454417 C15.2831831,9.67293286 15.2048451,9.89673498 15.2048451,10.1914346 C15.2048451,10.4926643 15.264507,10.7098516 15.3889859,10.8517314 C15.4920845,10.9629965 15.6794366,10.9967491 15.8557183,10.9967491 L16.1564789,10.9967491 L17.100338,8.78561131 L18.1037746,8.78561131 L19.2376056,11.4450318 L19.2376056,8.78561131 L20.2572676,8.78561131 L21.4344507,10.7437739 L21.4344507,8.78561131 L22.1203944,8.78561131 L22.1203944,11.5971731 L22.1203944,11.5971731 Z M8.45070423e-05,12.1494276 L1.14430986,12.1494276 L1.40230986,11.5249187 L1.97991549,11.5249187 L2.23723944,12.1494276 L4.48859155,12.1494276 L4.48859155,11.6719717 L4.6895493,12.1514629 L5.85828169,12.1514629 L6.05923944,11.6648481 L6.05923944,12.1494276 L11.6542817,12.1494276 L11.651662,11.1242968 L11.7599155,11.1242968 C11.8357183,11.1269258 11.8578592,11.1339647 11.8578592,11.2595618 L11.8578592,12.1494276 L14.7516338,12.1494276 L14.7516338,11.9107845 C14.9850423,12.0362968 15.3480845,12.1494276 15.8258028,12.1494276 L17.0432113,12.1494276 L17.3037465,11.5249187 L17.8813521,11.5249187 L18.1361408,12.1494276 L20.4821408,12.1494276 L20.4821408,11.556212 L20.8374085,12.1494276 L22.7173521,12.1494276 L22.7173521,8.22801413 L20.8568451,8.22801413 L20.8568451,8.69113781 L20.5963099,8.22801413 L18.6872113,8.22801413 L18.6872113,8.69113781 L18.4479718,8.22801413 L15.8692394,8.22801413 C15.4375775,8.22801413 15.0581408,8.28848057 14.7516338,8.4569894 L14.7516338,8.22801413 L12.9720845,8.22801413 L12.9720845,8.4569894 C12.7770423,8.28330742 12.5112676,8.22801413 12.2157465,8.22801413 L5.7143662,8.22801413 L5.27814085,9.24084806 L4.83016901,8.22801413 L2.78239437,8.22801413 L2.78239437,8.69113781 L2.55743662,8.22801413 L0.811014085,8.22801413 L0,10.0924664 L0,12.1494276 L8.45070423e-05,12.1494276 Z" id="Shape" fill="#FFFFFF"></path>
                <path d="M23.8264225,14.2233498 L22.6058873,14.2233498 C22.4840282,14.2233498 22.4030704,14.2279293 22.3348732,14.2741484 C22.2642254,14.319689 22.2370141,14.3872792 22.2370141,14.4764947 C22.2370141,14.5825866 22.2966761,14.6547562 22.3834648,14.6859647 C22.4541127,14.7106431 22.53,14.7178516 22.6415493,14.7178516 L23.004507,14.7276042 C23.3707606,14.7366784 23.6152394,14.7998587 23.7643099,14.9539505 C23.7914366,14.9754064 23.8077465,14.9994912 23.8264225,15.023576 L23.8264225,14.2233498 Z M23.8264225,16.0774558 C23.6637465,16.3161837 23.3467606,16.4372014 22.9176338,16.4372014 L21.624338,16.4372014 L21.624338,15.8341484 L22.9123944,15.8341484 C23.040169,15.8341484 23.1295775,15.8172721 23.1834085,15.764523 C23.2300563,15.7210177 23.2625915,15.6578375 23.2625915,15.5810883 C23.2625915,15.4991661 23.2300563,15.4341201 23.1807887,15.3951095 C23.1321972,15.3521979 23.0614648,15.3326926 22.9448451,15.3326926 C22.3160282,15.3112367 21.5315493,15.3521979 21.5315493,14.4622473 C21.5315493,14.0543322 21.7896338,13.6249611 22.4923944,13.6249611 L23.826338,13.6249611 L23.826338,13.0654134 L22.5869577,13.0654134 C22.2129296,13.0654134 21.9412394,13.1553074 21.7488169,13.2950671 L21.7488169,13.0654134 L19.9156056,13.0654134 C19.6224507,13.0654134 19.278338,13.1383463 19.1155775,13.2950671 L19.1155775,13.0654134 L15.8419437,13.0654134 L15.8419437,13.2950671 C15.5814085,13.1064594 15.1418028,13.0654134 14.9389014,13.0654134 L12.7795775,13.0654134 L12.7795775,13.2950671 C12.5734648,13.0947562 12.1150986,13.0654134 11.8357183,13.0654134 L9.41907042,13.0654134 L8.86605634,13.6660071 L8.34811268,13.0654134 L4.73814085,13.0654134 L4.73814085,16.9895406 L8.28016901,16.9895406 L8.85,16.3794488 L9.38678873,16.9895406 L11.5701127,16.9914912 L11.5701127,16.0683816 L11.7847606,16.0683816 C12.0744507,16.0728763 12.4161127,16.0611731 12.7175493,15.9304028 L12.7175493,16.9894558 L14.5183944,16.9894558 L14.5183944,15.9666996 L14.6052676,15.9666996 C14.7161408,15.9666996 14.7270423,15.9712792 14.7270423,16.0824594 L14.7270423,16.989371 L20.1976901,16.989371 C20.5450141,16.989371 20.9080563,16.9001555 21.1090986,16.7382615 L21.1090986,16.989371 L22.8443662,16.989371 C23.2054648,16.989371 23.5581127,16.9385724 23.8264225,16.8084806 L23.8264225,16.0774558 L23.8264225,16.0774558 Z M21.1550704,14.9539505 C21.2854648,15.0893852 21.3553521,15.2603534 21.3553521,15.5497951 C21.3553521,16.1547986 20.9787042,16.4372014 20.3033239,16.4372014 L18.9989577,16.4372014 L18.9989577,15.8341484 L20.2980845,15.8341484 C20.4250986,15.8341484 20.5151831,15.8172721 20.5716338,15.764523 C20.6176901,15.7210177 20.6507324,15.6578375 20.6507324,15.5810883 C20.6507324,15.4991661 20.6149859,15.4341201 20.5690141,15.3951095 C20.5178028,15.3521979 20.4471549,15.3326926 20.3305352,15.3326926 C19.7042535,15.3112367 18.9199437,15.3521979 18.9199437,14.4622473 C18.9199437,14.0543322 19.1753239,13.6249611 19.8774085,13.6249611 L21.2199718,13.6249611 L21.2199718,14.2235194 L19.991493,14.2235194 C19.8697183,14.2235194 19.7905352,14.2280989 19.7231831,14.274318 C19.649831,14.3198587 19.6226197,14.3874488 19.6226197,14.4766643 C19.6226197,14.5827562 19.6849014,14.6549258 19.7691549,14.6861343 C19.8398028,14.7108127 19.9156901,14.7180212 20.0297746,14.7180212 L20.3902817,14.7277739 C20.753831,14.7366784 21.0033803,14.7997739 21.1550704,14.9539505 L21.1550704,14.9539505 Z M15.1121408,14.7802686 C15.0225634,14.8336113 14.9117746,14.8381908 14.7814648,14.8381908 L13.9679155,14.8381908 L13.9679155,14.2065583 L14.7925352,14.2065583 C14.9117746,14.2065583 15.0310986,14.2091025 15.1121408,14.2573569 C15.1989296,14.3028975 15.2508169,14.3899929 15.2508169,14.5103322 C15.2508169,14.6306714 15.1989296,14.7276042 15.1121408,14.7802686 L15.1121408,14.7802686 Z M15.5165915,15.1302615 C15.665662,15.18547 15.7875211,15.2844382 15.8446479,15.3663604 C15.9392113,15.5036608 15.9529014,15.6318021 15.9556056,15.879689 L15.9556056,16.4372014 L15.2832676,16.4372014 L15.2832676,16.0853428 C15.2832676,15.9161555 15.299493,15.6656396 15.1750141,15.5348693 C15.0771549,15.4341201 14.928,15.4100353 14.6836901,15.4100353 L13.968,15.4100353 L13.968,16.4372014 L13.2950704,16.4372014 L13.2950704,13.6248763 L14.8412113,13.6248763 C15.1802535,13.6248763 15.4271831,13.6398869 15.6469859,13.7575972 C15.858338,13.8857385 15.9912676,14.0612862 15.9912676,14.382106 C15.9911831,14.8309823 15.6928732,15.0600424 15.5165915,15.1302615 L15.5165915,15.1302615 Z M16.3625915,13.6248763 L18.5977183,13.6248763 L18.5977183,14.2064735 L17.0295211,14.2064735 L17.0295211,14.7177668 L18.5594366,14.7177668 L18.5594366,15.2915618 L17.0295211,15.2915618 L17.0295211,15.8511095 L18.5977183,15.8536537 L18.5977183,16.4372014 L16.3625915,16.4372014 L16.3625915,13.6248763 L16.3625915,13.6248763 Z M11.8442535,14.922742 L10.9788169,14.922742 L10.9788169,14.2065583 L11.8520282,14.2065583 C12.0938028,14.2065583 12.2616338,14.3054417 12.2616338,14.5513781 C12.2616338,14.7946007 12.1015775,14.922742 11.8442535,14.922742 L11.8442535,14.922742 Z M10.3118028,16.1814276 L9.28360563,15.0358728 L10.3118028,13.9266996 L10.3118028,16.1814276 L10.3118028,16.1814276 Z M7.65650704,15.8511095 L6.00997183,15.8511095 L6.00997183,15.2915618 L7.48022535,15.2915618 L7.48022535,14.7177668 L6.00997183,14.7177668 L6.00997183,14.2064735 L7.68895775,14.2064735 L8.42146479,15.0260353 L7.65650704,15.8511095 L7.65650704,15.8511095 Z M12.9806197,14.5513781 C12.9806197,15.3326078 12.3998028,15.4939081 11.8144225,15.4939081 L10.9788169,15.4939081 L10.9788169,16.4372014 L9.67715493,16.4372014 L8.85253521,15.5062049 L7.9955493,16.4372014 L5.34287324,16.4372014 L5.34287324,13.6248763 L8.0363662,13.6248763 L8.86030986,14.5467138 L9.71214085,13.6248763 L11.8520282,13.6248763 C12.383493,13.6248763 12.9806197,13.772523 12.9806197,14.5513781 L12.9806197,14.5513781 Z" id="Shape" fill="#FFFFFF"></path>
            </g>
        </g>
    </g>
</svg>