<?xml version="1.0" encoding="UTF-8" standalone="no"?>
<svg width="38px" height="24px" viewBox="0 0 38 24" version="1.1" xmlns="http://www.w3.org/2000/svg" xmlns:xlink="http://www.w3.org/1999/xlink">
    <!-- Generator: Sketch 39.1 (31720) - http://www.bohemiancoding.com/sketch -->
    <title>visa</title>
    <desc>Created with Sketch.</desc>
    <defs></defs>
    <g id="Page-1" stroke="none" stroke-width="1" fill="none" fill-rule="evenodd">
        <g id="visa" fill="#1A1F71">
            <path d="M18.8150958,18.0555584 L16.2763575,6.18675749 L13.2065063,6.18675749 L15.7452446,18.0555584 L18.8150958,18.0555584 L18.8150958,18.0555584 Z M31.7320236,10.3910648 L33.3503226,14.8482842 L34.2793479,10.3910648 L31.7320236,10.3910648 L31.7320236,10.3910648 Z M35.1594376,6.18675749 L38,6.18675749 L35.5202847,18.0555584 L32.8976568,18.0555584 C32.3111806,18.0555584 31.8128635,17.7111796 31.5927237,17.183351 L26.9854134,6.18675749 L30.2092029,6.18675749 L30.8504794,7.9588306 L34.7888315,7.9588306 L35.1594376,6.18675749 L35.1594376,6.18675749 Z M27.1445127,10.0611649 C27.157509,13.1934828 22.8120955,13.3655784 22.8434368,14.7656145 C22.8523981,15.1911616 23.2572544,15.643499 24.1444756,15.7607942 C24.5860219,15.8176121 25.7974472,15.861762 27.1721944,15.2296814 L27.7126439,17.7460397 C26.9742469,18.013426 26.0211996,18.2718509 24.8407402,18.2718509 C21.8061245,18.2718509 19.6689582,16.6573522 19.6506133,14.3481372 C19.632456,12.6379725 21.1754515,11.6869896 22.3390672,11.1188584 C23.5360417,10.5360417 23.9375668,10.1639812 23.9318897,9.64311526 C23.9245705,8.84789103 22.979077,8.49600529 22.0956561,8.48152637 C20.5525199,8.45751838 19.6544606,8.89902707 18.9395226,9.2307521 L18.3843876,6.63009598 C19.1007801,6.30020076 20.4258879,6.01447893 21.7985707,6 C25.02419,6 27.1355044,7.59430044 27.1445127,10.0611649 L27.1445127,10.0611649 Z M9.45305844,6.18675749 L6.20585686,6.18675749 L3.75912964,15.6585128 C3.61031013,16.2413294 3.48037046,16.455792 3.02951568,16.6991562 C2.29092159,17.1009159 1.07398342,17.4765891 7.51434144e-16,17.7111796 L0.0731260788,18.0555584 L5.29663103,18.0555584 C5.96371256,18.0555584 6.56285667,17.6122293 6.71351068,16.8461506 L8.00704265,9.97685777 L11.201696,18.0555584 L14.4273152,18.0555584 L9.45305844,6.18675749 Z" id="path14" transform="translate(19.000000, 12.135925) scale(1, -1) translate(-19.000000, -12.135925) "></path>
        </g>
    </g>
</svg>