<?xml version="1.0" encoding="UTF-8" standalone="no"?>
<svg width="38px" height="24px" viewBox="0 0 38 24" version="1.1" xmlns="http://www.w3.org/2000/svg" xmlns:xlink="http://www.w3.org/1999/xlink">
    <!-- Generator: Sketch 39.1 (31720) - http://www.bohemiancoding.com/sketch -->
    <title>diners club</title>
    <desc>Created with Sketch.</desc>
    <defs></defs>
    <g id="Page-1" stroke="none" stroke-width="1" fill="none" fill-rule="evenodd">
        <g id="diners-club">
            <g id="Group" transform="translate(4.000000, 0.000000)">
                <path d="M17.7100887,23.9498905 C24.2559169,23.9812059 30.2305592,18.6114884 30.2305592,12.0790132 C30.2305592,4.93538814 24.2559169,-0.0023759812 17.7100887,0 L12.0766372,0 C5.45240165,-0.0023759812 2.70146941e-15,4.93686125 2.70146941e-15,12.0790132 C2.70146941e-15,18.612914 5.45240165,23.9812534 12.0766372,23.9498905 L17.7100887,23.9498905 L17.7100887,23.9498905 Z" id="Shape" fill="#0079BE"></path>
                <path d="M12.1032957,0.989833767 C6.05024604,0.991734552 1.14527046,5.89813572 1.14384487,11.9536089 C1.14527046,18.0080367 6.05019852,22.9139627 12.1032957,22.9158635 C18.157771,22.9139627 23.0637445,18.0080367 23.0645999,11.9536089 C23.063697,5.89813572 18.157771,0.991734552 12.1032957,0.989833767 L12.1032957,0.989833767 Z M5.15640191,11.9536089 L5.15640191,11.9536089 C5.16210427,8.99456194 7.01014245,6.47126991 9.61611862,5.46855832 L9.61611862,18.4371389 C7.01014245,17.4349975 5.16205675,14.9130836 5.15640191,11.9536089 L5.15640191,11.9536089 Z M14.5895225,18.4399901 L14.5895225,18.4399901 L14.5895225,5.46813065 C17.196449,6.46841873 19.0473384,8.99313635 19.0520904,11.9536089 C19.0473384,14.9149844 17.196449,17.4378012 14.5895225,18.4399901 L14.5895225,18.4399901 Z" id="Shape" fill="#FFFFFF"></path>
                <path d="M17.7100887,23.9498905 C24.2559169,23.9812059 30.2305592,18.6114884 30.2305592,12.0790132 C30.2305592,4.93538814 24.2559169,-0.0023759812 17.7100887,0 L12.0766372,0 C5.45240165,-0.0023759812 2.70146941e-15,4.93686125 2.70146941e-15,12.0790132 C2.70146941e-15,18.612914 5.45240165,23.9812534 12.0766372,23.9498905 L17.7100887,23.9498905 L17.7100887,23.9498905 Z" id="Shape" fill="#0079BE"></path>
                <path d="M12.1032957,0.989833767 C6.05024604,0.991734552 1.14527046,5.89813572 1.14384487,11.9536089 C1.14527046,18.0080367 6.05019852,22.9139627 12.1032957,22.9158635 C18.157771,22.9139627 23.0637445,18.0080367 23.0645999,11.9536089 C23.063697,5.89813572 18.157771,0.991734552 12.1032957,0.989833767 L12.1032957,0.989833767 Z M5.15640191,11.9536089 L5.15640191,11.9536089 C5.16210427,8.99456194 7.01014245,6.47126991 9.61611862,5.46855832 L9.61611862,18.4371389 C7.01014245,17.4349975 5.16205675,14.9130836 5.15640191,11.9536089 L5.15640191,11.9536089 Z M14.5895225,18.4399901 L14.5895225,18.4399901 L14.5895225,5.46813065 C17.196449,6.46841873 19.0473384,8.99313635 19.0520904,11.9536089 C19.0473384,14.9149844 17.196449,17.4378012 14.5895225,18.4399901 L14.5895225,18.4399901 Z" id="Shape" fill="#FFFFFF"></path>
            </g>
        </g>
    </g>
</svg>