<?xml version="1.0" encoding="UTF-8" standalone="no"?>
<svg width="38px" height="24px" viewBox="0 0 38 24" version="1.1" xmlns="http://www.w3.org/2000/svg" xmlns:xlink="http://www.w3.org/1999/xlink">
    <!-- Generator: Sketch 39.1 (31720) - http://www.bohemiancoding.com/sketch -->
    <title>unionpay</title>
    <desc>Created with Sketch.</desc>
    <defs></defs>
    <g id="Page-1" stroke="none" stroke-width="1" fill="none" fill-rule="evenodd">
        <g id="unionpay">
            <g id="UnionPay_logo" transform="translate(0.300000, 0.000000)">
                <g id="Group">
                    <path d="M35.5271313,0.0603153744 L26.3356338,0.057946541 L26.333265,0.057946541 C26.3261604,0.057946541 26.3192119,0.0592109799 26.3122653,0.0592109799 C25.0495639,0.0978949764 23.4769085,1.11064631 23.1904833,2.35945284 L18.8437393,21.5928348 C18.5573139,22.8533023 19.336535,23.8789541 20.5900792,23.8978277 L30.2461104,23.8978277 C31.4805476,23.8367661 32.6800904,22.8356623 32.961622,21.6010457 L37.3085259,2.36750571 C37.5995289,1.09422427 36.8015172,0.0603153744 35.5271313,0.0603153744" id="path22" fill="#01798A"></path>
                    <path d="M18.8437393,21.5928348 L23.1904852,2.35945284 C23.4769105,1.11064618 25.0495639,0.0978948501 26.3122653,0.0592109799 L22.657741,0.0568421466 L16.0734369,0.0555777077 C14.807214,0.0814730613 13.214066,1.1013309 12.9277506,2.35945284 L8.57972577,21.5928348 C8.29224328,22.8533023 9.0726015,23.8789541 10.3253554,23.8978277 L20.5900791,23.8978277 C19.3365349,23.8789541 18.5573138,22.8533023 18.8437391,21.5928348" id="path20" fill="#024381"></path>
                    <path d="M8.57972589,21.5928348 L12.9277497,2.35945486 C13.2140641,1.1013309 14.8072131,0.0814750824 16.073436,0.0555797288 L7.6385178,0.0533689188 C6.36522107,0.0533689188 4.73270827,1.084911 4.44172022,2.35945486 L0.093689612,21.5928348 C0.0672296189,21.7102148 0.052550002,21.8252432 0.0437917736,21.9378084 L0.0437917736,22.2946244 C0.12890796,23.2134432 0.830624773,23.8825315 1.83931007,23.8978278 L10.3253556,23.8978278 C9.07260162,23.8789542 8.29224341,22.8533025 8.57972589,21.5928349" id="path16" fill="#DD0228"></path>
                    <path d="M16.2512282,14.0702765 L16.4108618,14.0702765 C16.5575487,14.0702765 16.6562343,14.0210599 16.702497,13.923606 L17.1172925,13.3028187 L18.2280973,13.3028187 L17.9964637,13.7111246 L19.3283241,13.7111246 L19.1593752,14.3367276 L17.5745615,14.3367276 C17.3920336,14.6113261 17.1673465,14.740423 16.8971851,14.725123 L16.0716993,14.725123 L16.251228,14.0702765 L16.2512282,14.0702765 Z M16.0688573,14.9669103 L18.9867928,14.9669103 L18.8007896,15.646483 L17.6273003,15.646483 L17.4482457,16.3024349 L18.5901556,16.3024349 L18.4041525,16.981943 L17.2622426,16.981943 L16.9969749,17.9512265 C16.9312893,18.1132443 17.0176603,18.1860982 17.2546639,18.1695664 L18.1853077,18.1695664 L18.0128836,18.801027 L16.226123,18.801027 C15.8874329,18.801027 15.7712527,18.6072872 15.8774863,18.2189092 L16.2166477,16.981943 L15.4867221,16.981943 L15.6721412,16.3024349 L16.4021766,16.3024349 L16.5810751,15.646483 L15.8833285,15.646483 L16.0688574,14.9669103 L16.0688573,14.9669103 Z M20.7261863,13.2981917 L20.6802378,13.6960132 C20.6802378,13.6960132 21.2306663,13.2827653 21.7305686,13.2827653 L23.5778049,13.2827653 L22.8713741,15.8399693 C22.812793,16.1323158 22.5615804,16.277692 22.1178883,16.277692 L20.024175,16.277692 L19.5337481,18.0733421 C19.5054839,18.1695643 19.5454323,18.2189071 19.6510644,18.2189071 L20.063017,18.2189071 L19.9115944,18.7762842 L18.8642645,18.7762842 C18.4622595,18.7762842 18.2950452,18.6553981 18.361363,18.412568 L19.747223,13.2981917 L20.7261841,13.2981917 L20.726186,13.2981917 L20.7261863,13.2981917 Z M22.2904705,14.0210599 L20.6417099,14.0210599 L20.4444967,14.7110699 C20.4444967,14.7110699 20.7190798,14.5128304 21.1779292,14.5057402 C21.6355143,14.498572 22.1578367,14.5057402 22.1578367,14.5057402 L22.2904705,14.0210599 L22.2904705,14.0210599 Z M21.693147,15.6217403 C21.8150429,15.6382721 21.8832537,15.5900347 21.8914646,15.4761906 L21.992361,15.11246 L20.3410752,15.11246 L20.2025993,15.6217403 L21.693147,15.6217403 L21.693147,15.6217403 Z M20.5793412,16.4479364 L21.5311446,16.4479364 L21.5134602,16.85981 L21.7668837,16.85981 C21.8949379,16.85981 21.9584129,16.8188054 21.9584129,16.7378832 L22.0334139,16.4714321 L22.8244773,16.4714321 L22.7188451,16.85981 C22.6294749,17.1837512 22.3926295,17.3527484 22.0076766,17.3692802 L21.5006697,17.3692802 L21.4983009,18.0733422 C21.4889855,18.1860963 21.5909863,18.243571 21.80099,18.243571 L22.2775239,18.243571 L22.1237305,18.8010271 L20.980716,18.8010271 C20.6603425,18.8162637 20.5032358,18.6636094 20.506551,18.3397934 L20.5793412,16.4479365 L20.5793412,16.4479364 Z" id="path24" fill="#FFFFFF"></path>
                    <path d="M9.04564811,9.89126526 C8.91655118,10.5238322 8.61728996,11.0096815 8.15308794,11.3547014 C7.69310265,11.6938801 7.09980471,11.8639827 6.37343146,11.8639827 C5.68984817,11.8639827 5.18869927,11.6902961 4.86889439,11.3417538 C4.64709654,11.0941089 4.53675852,10.7796092 4.53675852,10.3993623 C4.53675852,10.2421438 4.55557959,10.0731466 4.59314327,9.89126539 L5.36707546,6.15940151 L6.5359548,6.15940151 L5.77255472,9.84901166 C5.74905953,9.95113966 5.73968057,10.046194 5.74091217,10.1318683 C5.73968057,10.320855 5.7866073,10.4757211 5.88166152,10.5965435 C6.02013702,10.7761513 6.24488768,10.8652843 6.55764972,10.8652843 C6.91730766,10.8652843 7.2136642,10.7773356 7.44367295,10.6000648 C7.67372895,10.4240412 7.8239204,10.1741217 7.89138952,9.84901153 L8.65719027,6.15940138 L9.82014797,6.15940138 L9.04564811,9.89126526" id="path28" fill="#FFFFFF"></path>
                    <path d="M13.9545695,8.42312319 L14.8700086,8.42312319 L14.1529353,11.7537072 L13.2392965,11.7537072 L13.9545695,8.42312319 M14.2427315,7.20973219 L15.1663179,7.20973219 L14.9938002,8.01816524 L14.0702764,8.01816524 L14.2427315,7.20973219" id="path34" fill="#FFFFFF"></path>
                    <path d="M15.6803359,11.5002038 C15.4409009,11.2713794 15.3200149,10.9627383 15.3188468,10.5707753 C15.3188468,10.5038425 15.3229205,10.4276099 15.3317945,10.3442244 C15.3406203,10.2597181 15.3517841,10.1775643 15.3675738,10.1013316 C15.476128,9.56034469 15.707352,9.1308176 16.0634885,8.81391828 C16.4190727,8.49589815 16.8480795,8.33627999 17.3503487,8.33627999 C17.761671,8.33627999 18.0878848,8.45130843 18.326783,8.68131718 C18.5655231,8.91254123 18.6852102,9.22464023 18.6852102,9.62141987 C18.6852102,9.68937796 18.6799983,9.76802681 18.6711571,9.8525176 C18.6605774,9.93819198 18.6477886,10.0203458 18.6329454,10.1013315 C18.5268392,10.6341075 18.29631,11.0589605 17.9400935,11.3700023 C17.5838789,11.6833329 17.1561347,11.8393034 16.6573387,11.8393034 C16.2442817,11.8393034 15.9191704,11.7266911 15.6803359,11.5002037 M17.4248756,10.8406678 C17.5862478,10.6658131 17.7018275,10.4005301 17.7722489,10.0473618 C17.7828286,9.99222407 17.792144,9.9346868 17.7979862,9.87719664 C17.8038283,9.8208273 17.8061971,9.76802669 17.8061971,9.71991548 C17.8061971,9.51452325 17.7539342,9.35496762 17.6489324,9.24227719 C17.5445627,9.12841769 17.3961392,9.07215926 17.204294,9.07215926 C16.9507125,9.07215926 16.744182,9.16122881 16.5823377,9.33966753 C16.4190727,9.51810726 16.303493,9.78800078 16.2307009,10.1471056 C16.2207532,10.2022433 16.2125442,10.2574436 16.2049635,10.3114133 C16.1991215,10.366551 16.1973847,10.4181836 16.1984912,10.4651103 C16.1984912,10.6693346 16.250754,10.8266156 16.3557559,10.9380591 C16.4601255,11.0495815 16.6079168,11.1047192 16.802289,11.1047192 C17.0569769,11.1047192 17.2635054,11.0167069 17.4248756,10.8406677" id="path36" fill="#FFFFFF"></path>
                    <path d="" id="path14" fill="#E02F41"></path>
                    <path d="" id="path18" fill="#2E4F7D"></path>
                    <path d="M24.6246626,14.098477 L24.8454023,13.3216238 L25.9614189,13.3216238 L25.9132596,13.6067066 C25.9132596,13.6067066 26.4835833,13.3216238 26.8942735,13.3216238 L28.2742933,13.3216238 L28.0549742,14.098477 L27.8378658,14.098477 L26.7968503,17.7623649 L27.0139586,17.7623649 L26.8074301,18.4899862 L26.5903217,18.4899862 L26.5000052,18.8056529 L25.4191994,18.8056529 L25.5093598,18.4899862 L23.3771187,18.4899862 L23.5849116,17.7623649 L23.7985467,17.7623649 L24.8405085,14.098477 L24.6246628,14.098477 L24.6246626,14.098477 Z M25.8287851,14.098477 L25.5447286,15.0900697 C25.5447286,15.0900697 26.0307359,14.9035617 26.449635,14.8507609 C26.5421643,14.504493 26.663112,14.0984769 26.663112,14.0984769 L25.828785,14.0984769 L25.8287851,14.098477 Z M25.4132012,15.5548866 L25.1281964,16.5934861 C25.1281964,16.5934861 25.6667827,16.3282665 26.03642,16.305939 C26.1431584,15.9045344 26.2500551,15.5548867 26.2500551,15.5548867 L25.4132012,15.5548867 L25.4132012,15.5548866 Z M25.6220986,17.7623649 L25.8357317,17.0089601 L25.0026691,17.0089601 L24.7879277,17.7623649 L25.6220986,17.7623649 L25.6220986,17.7623649 Z M28.3213463,13.2735281 L29.3705708,13.2735281 L29.4150989,13.6606763 C29.4081504,13.7592357 29.4667315,13.806304 29.5911544,13.806304 L29.7765253,13.806304 L29.5889436,14.4622558 L28.8177754,14.4622558 C28.5232972,14.4774924 28.3718726,14.3649282 28.3578214,14.1219091 L28.3213463,13.2735281 L28.3213463,13.2735281 Z M28.0139215,14.6805959 L31.4124954,14.6805959 L31.2130714,15.3847687 L30.1310031,15.3847687 L29.9454742,16.0394879 L31.026438,16.0394879 L30.8257497,16.7425091 L29.6217854,16.7425091 L29.3494132,17.1545253 L29.9386857,17.1545253 L30.0747928,17.9794732 C30.0910547,18.061627 30.1638469,18.1015273 30.2882697,18.1015273 L30.4712718,18.1015273 L30.2789524,18.7809102 L29.6311027,18.7809102 C29.2954137,18.797442 29.121885,18.6847668 29.1076739,18.4418751 L28.9515136,17.6884684 L28.4152962,18.4899863 C28.2885044,18.7164581 28.0936582,18.822123 27.8309194,18.805653 L26.8415366,18.805653 L27.0340121,18.1260812 L27.3427014,18.1260812 C27.4694931,18.1260812 27.5749672,18.0697591 27.6700215,17.9559622 L28.5092442,16.7425091 L27.4271759,16.7425091 L27.6277061,16.0394879 L28.8013536,16.0394879 L28.9879869,15.3847687 L27.8132351,15.3847687 L28.0139215,14.6805959 L28.0139215,14.6805959 Z" id="path26" fill="#FFFFFF"></path>
                    <path d="M10.122363,8.42195513 L10.9479269,8.42195513 L10.8535047,8.90309848 L10.9719911,8.76580695 C11.2396103,8.47949253 11.564657,8.3374488 11.9484254,8.3374488 C12.2957987,8.3374488 12.5463339,8.43842416 12.703615,8.64140045 C12.85848,8.84445568 12.9007336,9.12495988 12.8274692,9.48523362 L12.3726471,11.7548762 L11.5241881,11.7548762 L11.934909,9.69765252 C11.9772263,9.48523374 11.9655102,9.32678351 11.9002515,9.2246401 C11.8357975,9.12256022 11.7124954,9.07215926 11.5347351,9.07215926 C11.3164587,9.07215926 11.1327773,9.14013377 10.9831539,9.27515184 C10.8328993,9.4112743 10.7337878,9.60026117 10.6850608,9.84080152 L10.3065967,11.7548762 L9.45636917,11.7548762 L10.122363,8.42195513" id="path30" fill="#FFFFFF"></path>
                    <path d="M19.5899605,8.42195513 L20.4162347,8.42195513 L20.3224448,8.90309848 L20.4396049,8.76580695 C20.7073975,8.47949253 21.0336132,8.3374488 21.4161972,8.3374488 C21.7635705,8.3374488 22.0146271,8.43842416 22.1706274,8.64140045 C22.3245769,8.84445568 22.369105,9.12495988 22.2939458,9.48523362 L21.8409384,11.7548762 L20.9912959,11.7548762 L21.402144,9.69765252 C21.4443013,9.48523374 21.432617,9.32678351 21.3680378,9.2246401 C21.3010896,9.12256022 21.18014,9.07215926 21.0031382,9.07215926 C20.7847673,9.07215926 20.6017635,9.14013377 20.4503408,9.27515184 C20.3000226,9.4112743 20.2003905,9.60026117 20.1534938,9.84080152 L19.7732785,11.7548762 L18.9241082,11.7548762 L19.5899603,8.42195513" id="path32" fill="#FFFFFF"></path>
                    <path d="M23.6741218,6.3564564 L26.072893,6.3564564 C26.5341094,6.3564564 26.8907981,6.46098406 27.1360126,6.66625011 C27.3801207,6.87404301 27.5023328,7.17215259 27.5023328,7.56057923 L27.5023328,7.57226348 C27.5023328,7.64615963 27.497439,7.72952821 27.4904905,7.81984679 C27.4786482,7.90905756 27.4633327,7.99937462 27.4435956,8.09332343 C27.3379634,8.60735685 27.0925909,9.02047845 26.7136382,9.33380917 C26.333265,9.6459563 25.8827846,9.80323746 25.3640935,9.80323746 L24.0777054,9.80323746 L23.6799639,11.7548753 L22.5661581,11.7548753 L23.6741217,6.35645653 M24.2736559,8.86442914 L25.3405668,8.86442914 C25.6186231,8.86442914 25.8392048,8.79978625 26.0001008,8.67193734 C26.1597362,8.54284041 26.2653684,8.34572172 26.3239475,8.07816608 C26.3332649,8.02874421 26.3391069,7.98421714 26.3462115,7.94316343 C26.3498429,7.90447893 26.3544224,7.8656364 26.3544224,7.82821394 C26.3544224,7.63684295 26.286526,7.49836846 26.1502608,7.41152513 C26.0141537,7.32341737 25.8006785,7.28126014 25.5047779,7.28126014 L24.598765,7.28126014 L24.2736557,8.86442914" id="path38" fill="#FFFFFF"></path>
                    <path d="M32.4874569,12.3992218 C32.1353459,13.1478899 31.7998149,13.584381 31.6027597,13.7874208 C31.4053886,13.9881863 31.0147516,14.4552776 30.0735281,14.4200033 L30.1545294,13.8485423 C30.946541,13.6044333 31.3749156,12.504697 31.6190236,12.0177433 L31.3280187,8.43133421 L31.9406596,8.4231242 L32.4546131,8.4231242 L32.509877,10.6728552 L33.4732065,8.4231242 L34.4485362,8.4231242 L32.4874568,12.3992218" id="path40" fill="#FFFFFF"></path>
                    <path d="M29.7602612,8.69420119 L29.3727814,8.9606523 C28.9679334,8.64381665 28.5982961,8.44780324 27.8849186,8.77870751 C26.9130621,9.22932964 26.1009991,12.6855364 28.7767204,11.5471469 L28.9292494,11.7278601 L29.9819471,11.7548763 L30.6732205,8.61438453 L29.7602612,8.69420131 M29.1616733,10.4111409 C28.9925663,10.9099377 28.614876,11.2396739 28.3191354,11.1458041 C28.0233946,11.0542712 27.9177607,10.5730489 28.0890784,10.0731465 C28.2580293,9.57318247 28.6382445,9.24461444 28.9316163,9.33849972 C29.2273589,9.43003259 29.3340974,9.91117594 29.1616733,10.4111409" id="path42" fill="#FFFFFF"></path>
                </g>
            </g>
        </g>
    </g>
</svg>