<?xml version="1.0" encoding="UTF-8" standalone="no"?>
<svg width="38px" height="24px" viewBox="0 0 38 24" version="1.1" xmlns="http://www.w3.org/2000/svg" xmlns:xlink="http://www.w3.org/1999/xlink">
    <!-- Generator: Sketch 39.1 (31720) - http://www.bohemiancoding.com/sketch -->
    <title>discover</title>
    <desc>Created with Sketch.</desc>
    <defs>
        <linearGradient x1="25.6517173%" y1="6.87226575%" x2="72.7212601%" y2="94.9635088%" id="linearGradient-1">
            <stop stop-color="#E05926" offset="0%"></stop>
            <stop stop-color="#FAA036" offset="100%"></stop>
        </linearGradient>
    </defs>
    <g id="Page-1" stroke="none" stroke-width="1" fill="none" fill-rule="evenodd">
        <g id="discover">
            <g id="Group" transform="translate(0.000000, 9.000000)">
                <ellipse id="Oval" fill="url(#linearGradient-1)" cx="20.0555556" cy="3.16666667" rx="3.16666667" ry="3.16666667"></ellipse>
                <path d="M3.11945378,4.67470903 C2.74581872,5.01085658 2.26481051,5.15605641 1.50040763,5.15605641 L1.18286477,5.15605641 L1.18286477,1.15949258 L1.50040763,1.15949258 C2.26481051,1.15949258 2.72739513,1.29556623 3.11945378,1.6485621 C3.52829315,2.01103516 3.77214166,2.57229509 3.77214166,3.15192438 C3.77214166,3.73272369 3.52829315,4.31364 3.11945378,4.67470903 L3.11945378,4.67470903 Z M1.73756732,0.136307654 L0,0.136307654 L0,6.17900733 L1.72853155,6.17900733 C2.64560378,6.17900733 3.30885296,5.96231911 3.89066283,5.48179075 C4.58101932,4.91093663 4.99044543,4.05015087 4.99044543,3.16058255 C4.99044543,1.37653181 3.65373783,0.136307654 1.73756732,0.136307654 Z M5.53611221,6.17900733 L6.71698206,6.17900733 L6.71698206,0.136307654 L5.53611221,0.136307654 L5.53611221,6.17900733 Z M9.60807723,2.45423979 C8.89835837,2.19203769 8.68947947,2.01910832 8.68947947,1.69407599 C8.68947947,1.31323357 9.06135432,1.02353593 9.5711127,1.02353593 C9.92550274,1.02353593 10.2162903,1.16838475 10.5262056,1.51166944 L11.1433371,0.70657676 C10.6345175,0.261617095 10.0257177,0.0354516904 9.36164707,0.0354516904 C8.29037996,0.0354516904 7.47187979,0.778767165 7.47187979,1.76544738 C7.47187979,2.59979063 7.8532598,3.02521091 8.96231286,3.4248907 C9.42607095,3.58717286 9.66182247,3.69539996 9.7802263,3.7693454 C10.0164472,3.9234374 10.1350857,4.14012562 10.1350857,4.39366956 C10.1350857,4.8836751 9.74396586,5.24556315 9.21613593,5.24556315 C8.65263229,5.24556315 8.19873141,4.96499169 7.92589802,4.43953445 L7.16349004,5.17430876 C7.70763131,5.97050927 8.3620794,6.32502617 9.26272296,6.32502617 C10.4894758,6.32502617 11.3523334,5.50846727 11.3523334,4.33996552 C11.3523334,3.37937681 10.9534686,2.94412833 9.60807723,2.45423979 Z M11.724795,3.16058255 C11.724795,4.93843217 13.124753,6.31531498 14.9246319,6.31531498 C15.4334515,6.31531498 15.8696329,6.21504403 16.4063812,5.96231911 L16.4063812,4.5752571 C15.933118,5.04689328 15.5150082,5.23667098 14.9786118,5.23667098 C13.7883542,5.23667098 12.9426293,4.37565121 12.9426293,3.15192438 C12.9426293,1.9926658 13.8147574,1.07735698 14.9246319,1.07735698 C15.4871967,1.07735698 15.9150464,1.27661186 16.4063812,1.75678921 L16.4063812,0.369844202 C15.8884085,0.107876101 15.4605588,0 14.9516219,0 C13.160896,0 11.724795,1.40472936 11.724795,3.16058255 Z M25.9845348,4.1953507 L24.3667795,0.136307654 L23.0761895,0.136307654 L25.6490377,6.33333333 L26.2847102,6.33333333 L28.9025026,0.136307654 L27.6214178,0.136307654 L25.9845348,4.1953507 Z M29.4398377,6.17900733 L32.7929307,6.17900733 L32.7929307,5.15605641 L30.6211769,5.15605641 L30.6211769,3.52387462 L32.7098486,3.52387462 L32.7098486,2.5006897 L30.6211769,2.5006897 L30.6211769,1.15949258 L32.7929307,1.15949258 L32.7929307,0.136307654 L29.4398377,0.136307654 L29.4398377,6.17900733 Z M37.4721701,1.91965638 C37.4721701,0.787659339 36.6916905,0.136307654 35.3276409,0.136307654 L33.5734102,0.136307654 L33.5734102,6.17900733 L34.7560403,6.17900733 L34.7560403,3.75039103 L34.9108219,3.75039103 L36.5458274,6.17900733 L38,6.17900733 L36.0902836,3.63362276 C36.9822434,3.45180122 37.4721701,2.84444239 37.4721701,1.91965638 Z M35.0999864,2.91756882 L34.7560403,2.91756882 L34.7560403,1.08648316 L35.1188794,1.08648316 C35.8566444,1.08648316 36.2563306,1.39548618 36.2563306,1.98353963 C36.2563306,2.59019644 35.8566444,2.91756882 35.0999864,2.91756882 Z" id="Combined-Shape" fill="#0B1015"></path>
            </g>
        </g>
    </g>
</svg>